<svg width="341" height="184" viewBox="0 0 341 184" fill="none" xmlns="http://www.w3.org/2000/svg">
<path d="M159.952 41.2567L144.142 25.33M159.952 62.4924L144.142 78.4191M181.031 41.2567L196.841 25.33M181.031 62.4924L196.841 78.4191M182.111 10.1412C184.124 8.16034 186.511 6.60555 189.129 5.56849C191.748 4.53142 194.547 4.03308 197.36 4.10283C200.173 4.17259 202.944 4.80904 205.509 5.97465C208.074 7.14026 210.381 8.81145 212.295 10.8897C214.209 12.9679 215.69 15.4111 216.652 18.0752C217.613 20.7393 218.036 23.5704 217.894 26.4016C217.752 29.2327 217.049 32.0067 215.826 34.5598C214.604 37.113 212.886 39.3936 210.774 41.2673M210.737 62.4924C212.866 64.3592 214.601 66.6377 215.84 69.1928C217.078 71.7479 217.795 74.5275 217.947 77.3668C218.099 80.2061 217.683 83.0472 216.725 85.7217C215.766 88.3961 214.284 90.8494 212.367 92.936C210.45 95.0226 208.136 96.7001 205.563 97.8689C202.99 99.0377 200.21 99.674 197.388 99.7402C194.566 99.8063 191.76 99.3009 189.136 98.2539C186.512 97.2069 184.123 95.6396 182.111 93.6451M130.266 41.2567C128.135 39.3889 126.398 37.1086 125.159 34.5513C123.92 31.994 123.204 29.2119 123.053 26.3703C122.902 23.5286 123.319 20.6854 124.281 18.0095C125.242 15.3336 126.727 12.8796 128.648 10.7934C130.569 8.70711 132.887 7.03111 135.464 5.86496C138.041 4.6988 140.824 4.06626 143.648 4.00493C146.472 3.9436 149.28 4.45472 151.904 5.50794C154.528 6.56115 156.915 8.13496 158.924 10.1359M158.871 93.6132C156.853 95.5814 154.464 97.1233 151.846 98.1484C149.228 99.1735 146.433 99.661 143.625 99.5825C140.817 99.5039 138.053 98.8608 135.495 97.6909C132.938 96.5209 130.638 94.8478 128.731 92.7699C126.824 90.6919 125.349 88.251 124.392 85.5905C123.435 82.93 123.015 80.1037 123.158 77.2775C123.3 74.4514 124.002 71.6824 125.222 69.1334C126.442 66.5843 128.155 64.3066 130.261 62.434M165.221 30.6389H175.761C178.672 30.6389 181.031 33.0158 181.031 35.9478V67.8013C181.031 70.7333 178.672 73.1102 175.761 73.1102H165.221C162.311 73.1102 159.952 70.7333 159.952 67.8013V35.9478C159.952 33.0158 162.311 30.6389 165.221 30.6389Z" stroke="#EC441E" stroke-width="8" stroke-linecap="round" stroke-linejoin="round"/>
<path d="M61.0598 141.066L55.5558 132.874H51.7798V140.746H47.0758V118.986H56.7078C62.1478 118.986 64.8678 121.29 64.8678 125.898C64.8678 127.477 64.4518 128.81 63.6198 129.898C62.8091 130.965 61.6784 131.722 60.2278 132.17L65.9238 140.522L61.0598 141.066ZM51.7798 129.066H56.2598C58.7771 129.066 60.0358 128.01 60.0358 125.898C60.0358 123.829 58.7771 122.794 56.2598 122.794H51.7798V129.066ZM83.574 132.33C83.574 132.565 83.542 133.13 83.478 134.026H71.958C72.1713 135.263 72.6833 136.223 73.494 136.906C74.326 137.567 75.4247 137.898 76.79 137.898C78.71 137.898 80.4913 137.503 82.134 136.714L82.87 139.69C81.142 140.607 78.966 141.066 76.342 141.066C73.3767 141.066 71.1153 140.33 69.558 138.858C68.022 137.365 67.254 135.327 67.254 132.746C67.254 130.229 68.022 128.213 69.558 126.698C71.1153 125.183 73.206 124.426 75.83 124.426C78.4967 124.426 80.4487 125.173 81.686 126.666C82.9447 128.138 83.574 130.026 83.574 132.33ZM71.958 131.114H79.094C79.0513 128.746 77.9313 127.562 75.734 127.562C73.622 127.562 72.3633 128.746 71.958 131.114ZM101.071 138.826C99.7908 140.319 98.0628 141.066 95.8868 141.066C93.7108 141.066 92.0148 140.181 90.7988 138.41V147.562L86.3188 148.106V124.746H90.3828L90.7988 127.082C91.9934 125.311 93.6894 124.426 95.8868 124.426C98.0628 124.426 99.7908 125.183 101.071 126.698C102.372 128.191 103.023 130.207 103.023 132.746C103.023 135.285 102.372 137.311 101.071 138.826ZM94.3828 127.786C93.0174 127.786 91.8228 128.319 90.7988 129.386V136.074C91.8228 137.162 93.0174 137.706 94.3828 137.706C95.6841 137.706 96.6761 137.258 97.3588 136.362C98.0628 135.445 98.4148 134.239 98.4148 132.746C98.4148 131.253 98.0628 130.058 97.3588 129.162C96.6761 128.245 95.6841 127.786 94.3828 127.786ZM105.804 140.746V117.93L110.284 117.386V140.746H105.804ZM129.533 137.706C129.938 137.706 130.258 137.663 130.493 137.578V140.746C129.746 140.959 128.925 141.066 128.029 141.066C125.81 141.066 124.487 140.191 124.061 138.442C122.695 140.191 120.807 141.066 118.397 141.066C116.754 141.066 115.442 140.629 114.461 139.754C113.479 138.879 112.989 137.77 112.989 136.426C112.989 134.613 113.682 133.269 115.069 132.394C116.455 131.498 118.354 131.05 120.765 131.05C121.511 131.05 122.546 131.114 123.869 131.242V130.186C123.869 128.586 122.663 127.786 120.253 127.786C118.333 127.786 116.423 128.202 114.525 129.034L113.757 125.77C115.805 124.874 118.173 124.426 120.861 124.426C123.314 124.426 125.17 124.959 126.429 126.026C127.709 127.071 128.349 128.565 128.349 130.506V136.298C128.349 136.789 128.423 137.151 128.573 137.386C128.743 137.599 129.063 137.706 129.533 137.706ZM120.125 137.706C121.511 137.706 122.759 137.173 123.869 136.106V133.994C123.058 133.845 122.13 133.77 121.085 133.77C118.759 133.77 117.597 134.431 117.597 135.754C117.597 136.394 117.821 136.885 118.269 137.226C118.738 137.546 119.357 137.706 120.125 137.706ZM140.566 137.706C142.081 137.706 143.681 137.301 145.366 136.49L146.102 139.69C144.374 140.607 142.38 141.066 140.118 141.066C137.388 141.066 135.244 140.319 133.686 138.826C132.129 137.311 131.35 135.285 131.35 132.746C131.35 130.207 132.129 128.191 133.686 126.698C135.244 125.183 137.388 124.426 140.118 124.426C142.38 124.426 144.374 124.885 146.102 125.802L145.366 129.002C143.681 128.191 142.081 127.786 140.566 127.786C139.201 127.786 138.081 128.213 137.206 129.066C136.353 129.919 135.926 131.146 135.926 132.746C135.926 134.346 136.353 135.573 137.206 136.426C138.081 137.279 139.201 137.706 140.566 137.706ZM164.155 132.33C164.155 132.565 164.123 133.13 164.059 134.026H152.539C152.753 135.263 153.265 136.223 154.075 136.906C154.907 137.567 156.006 137.898 157.371 137.898C159.291 137.898 161.073 137.503 162.715 136.714L163.451 139.69C161.723 140.607 159.547 141.066 156.923 141.066C153.958 141.066 151.697 140.33 150.139 138.858C148.603 137.365 147.835 135.327 147.835 132.746C147.835 130.229 148.603 128.213 150.139 126.698C151.697 125.183 153.787 124.426 156.411 124.426C159.078 124.426 161.03 125.173 162.267 126.666C163.526 128.138 164.155 130.026 164.155 132.33ZM152.539 131.114H159.675C159.633 128.746 158.513 127.562 156.315 127.562C154.203 127.562 152.945 128.746 152.539 131.114ZM173.3 124.426C175.455 124.426 177.151 125.311 178.388 127.082V117.93L182.868 117.386V140.746H178.804L178.388 138.41C177.129 140.181 175.433 141.066 173.3 141.066C171.103 141.066 169.364 140.319 168.084 138.826C166.804 137.311 166.164 135.285 166.164 132.746C166.164 130.207 166.804 128.191 168.084 126.698C169.364 125.183 171.103 124.426 173.3 124.426ZM174.804 137.706C176.191 137.706 177.375 137.162 178.356 136.074V129.386C177.353 128.319 176.169 127.786 174.804 127.786C173.481 127.786 172.468 128.245 171.764 129.162C171.081 130.058 170.74 131.253 170.74 132.746C170.74 134.239 171.081 135.445 171.764 136.362C172.468 137.258 173.481 137.706 174.804 137.706ZM202.344 124.426C204.52 124.426 206.248 125.183 207.528 126.698C208.83 128.191 209.48 130.207 209.48 132.746C209.48 135.285 208.83 137.311 207.528 138.826C206.248 140.319 204.52 141.066 202.344 141.066C200.168 141.066 198.472 140.181 197.256 138.41L196.84 140.746H192.776V117.93L197.256 117.386V127.082C198.451 125.311 200.147 124.426 202.344 124.426ZM200.84 137.706C202.142 137.706 203.134 137.258 203.816 136.362C204.52 135.445 204.872 134.239 204.872 132.746C204.872 131.253 204.52 130.058 203.816 129.162C203.134 128.245 202.142 127.786 200.84 127.786C199.475 127.786 198.28 128.319 197.256 129.386V136.074C198.28 137.162 199.475 137.706 200.84 137.706ZM224.325 124.746H228.965L221.509 141.578C220.549 143.818 219.504 145.461 218.373 146.506C217.264 147.573 215.728 148.106 213.765 148.106C212.677 148.106 211.749 147.978 210.981 147.722L211.493 144.49C212.283 144.661 212.997 144.746 213.637 144.746C214.427 144.746 215.088 144.543 215.621 144.138C216.176 143.733 216.699 143.05 217.189 142.09L217.797 140.778L210.757 124.746H215.397L219.973 135.498L224.325 124.746ZM243.02 118.986V124.746H247.788V128.106H243.02V135.722C243.02 137.045 243.777 137.706 245.292 137.706C245.996 137.706 246.753 137.567 247.564 137.29L248.108 140.426C246.913 140.853 245.548 141.066 244.012 141.066C240.364 141.066 238.54 139.327 238.54 135.85V128.106H236.044V124.746H238.54V119.722L243.02 118.986ZM265.456 132.33C265.456 132.565 265.424 133.13 265.36 134.026H253.84C254.054 135.263 254.566 136.223 255.376 136.906C256.208 137.567 257.307 137.898 258.672 137.898C260.592 137.898 262.374 137.503 264.016 136.714L264.752 139.69C263.024 140.607 260.848 141.066 258.224 141.066C255.259 141.066 252.998 140.33 251.44 138.858C249.904 137.365 249.136 135.327 249.136 132.746C249.136 130.229 249.904 128.213 251.44 126.698C252.998 125.183 255.088 124.426 257.712 124.426C260.379 124.426 262.331 125.173 263.568 126.666C264.827 128.138 265.456 130.026 265.456 132.33ZM253.84 131.114H260.976C260.934 128.746 259.814 127.562 257.616 127.562C255.504 127.562 254.246 128.746 253.84 131.114ZM278.441 140.746L274.857 135.658L271.273 140.746H266.345L272.425 132.33L266.729 124.746H271.689L275.017 129.322L278.249 124.746H283.081L277.545 132.234L283.657 140.746H278.441ZM290.943 118.986V124.746H295.711V128.106H290.943V135.722C290.943 137.045 291.701 137.706 293.215 137.706C293.919 137.706 294.677 137.567 295.487 137.29L296.031 140.426C294.837 140.853 293.471 141.066 291.935 141.066C288.287 141.066 286.463 139.327 286.463 135.85V128.106H283.967V124.746H286.463V119.722L290.943 118.986Z" fill="#1A1C1E"/>
<path d="M115.238 169.586C116.198 169.586 116.946 169.83 117.482 170.318C118.026 170.806 118.298 171.45 118.298 172.25C118.298 173.058 118.026 173.706 117.482 174.194C116.946 174.682 116.198 174.926 115.238 174.926H112.946V177.746H111.83V169.586H115.238ZM115.202 173.978C115.778 173.978 116.246 173.83 116.606 173.534C116.966 173.238 117.146 172.81 117.146 172.25C117.146 171.69 116.966 171.266 116.606 170.978C116.246 170.682 115.778 170.534 115.202 170.534H112.946V173.978H115.202ZM119.394 177.746V169.142L120.474 168.986V177.746H119.394ZM127.797 177.038C127.981 177.038 128.133 177.01 128.253 176.954V177.746C128.029 177.826 127.769 177.866 127.473 177.866C126.721 177.866 126.297 177.526 126.201 176.846C125.633 177.526 124.877 177.866 123.933 177.866C123.301 177.866 122.797 177.706 122.421 177.386C122.045 177.058 121.857 176.638 121.857 176.126C121.857 175.462 122.117 174.966 122.637 174.638C123.157 174.31 123.837 174.146 124.677 174.146C125.141 174.146 125.641 174.182 126.177 174.254V173.726C126.177 173.358 126.041 173.058 125.769 172.826C125.497 172.586 125.081 172.466 124.521 172.466C123.769 172.466 123.041 172.634 122.337 172.97L122.133 172.13C122.821 171.794 123.657 171.626 124.641 171.626C125.497 171.626 126.145 171.822 126.585 172.214C127.033 172.598 127.257 173.122 127.257 173.786V176.39C127.257 176.606 127.293 176.77 127.365 176.882C127.445 176.986 127.589 177.038 127.797 177.038ZM124.269 177.026C124.989 177.026 125.625 176.714 126.177 176.09V175.058C125.753 174.986 125.277 174.95 124.749 174.95C123.557 174.95 122.961 175.298 122.961 175.994C122.961 176.314 123.077 176.566 123.309 176.75C123.549 176.934 123.869 177.026 124.269 177.026ZM132.021 177.026C132.621 177.026 133.249 176.862 133.905 176.534L134.109 177.338C133.421 177.69 132.697 177.866 131.937 177.866C130.953 177.866 130.169 177.586 129.585 177.026C129.009 176.458 128.721 175.698 128.721 174.746C128.721 173.794 129.009 173.038 129.585 172.478C130.169 171.91 130.953 171.626 131.937 171.626C132.697 171.626 133.421 171.802 134.109 172.154L133.905 172.958C133.249 172.63 132.621 172.466 132.021 172.466C131.365 172.466 130.833 172.67 130.425 173.078C130.025 173.486 129.825 174.042 129.825 174.746C129.825 175.45 130.025 176.006 130.425 176.414C130.833 176.822 131.365 177.026 132.021 177.026ZM140.867 174.566C140.867 174.806 140.863 174.974 140.855 175.07H136.115C136.179 175.694 136.399 176.182 136.775 176.534C137.159 176.886 137.683 177.062 138.347 177.062C139.067 177.062 139.751 176.898 140.399 176.57L140.603 177.338C139.923 177.69 139.147 177.866 138.275 177.866C137.211 177.866 136.395 177.59 135.827 177.038C135.267 176.478 134.987 175.714 134.987 174.746C134.987 173.794 135.267 173.038 135.827 172.478C136.387 171.91 137.139 171.626 138.083 171.626C138.603 171.626 139.047 171.706 139.415 171.866C139.791 172.026 140.079 172.25 140.279 172.538C140.487 172.826 140.635 173.138 140.723 173.474C140.819 173.802 140.867 174.166 140.867 174.566ZM136.127 174.278H139.787C139.779 173.71 139.647 173.258 139.391 172.922C139.143 172.586 138.695 172.418 138.047 172.418C137.527 172.418 137.095 172.582 136.751 172.91C136.407 173.23 136.199 173.686 136.127 174.278ZM145.39 171.626C146.086 171.626 146.622 171.818 146.998 172.202C147.374 172.586 147.562 173.126 147.562 173.822V177.746H146.482V173.846C146.482 173.406 146.354 173.066 146.098 172.826C145.842 172.586 145.478 172.466 145.006 172.466C144.358 172.466 143.794 172.754 143.314 173.33V177.746H142.234V169.142L143.314 168.986V172.658C143.818 171.97 144.51 171.626 145.39 171.626ZM152.085 171.626C153.069 171.626 153.849 171.926 154.425 172.526C155.009 173.118 155.301 173.858 155.301 174.746C155.301 175.634 155.009 176.378 154.425 176.978C153.849 177.57 153.069 177.866 152.085 177.866C151.085 177.866 150.297 177.57 149.721 176.978C149.145 176.378 148.857 175.634 148.857 174.746C148.857 173.858 149.145 173.118 149.721 172.526C150.297 171.926 151.085 171.626 152.085 171.626ZM152.073 177.026C152.745 177.026 153.265 176.806 153.633 176.366C154.009 175.918 154.197 175.378 154.197 174.746C154.197 174.122 154.009 173.586 153.633 173.138C153.265 172.69 152.745 172.466 152.073 172.466C151.401 172.466 150.881 172.69 150.513 173.138C150.145 173.578 149.961 174.114 149.961 174.746C149.961 175.386 150.141 175.926 150.501 176.366C150.869 176.806 151.393 177.026 152.073 177.026ZM156.655 177.746V169.142L157.735 168.986V177.746H156.655ZM161.937 171.626C162.825 171.626 163.533 171.974 164.061 172.67V169.142L165.141 168.986V177.746H164.145L164.061 176.822C163.517 177.518 162.809 177.866 161.937 177.866C161.081 177.866 160.393 177.582 159.873 177.014C159.353 176.446 159.093 175.69 159.093 174.746C159.093 173.802 159.353 173.046 159.873 172.478C160.393 171.91 161.081 171.626 161.937 171.626ZM162.213 177.026C162.941 177.026 163.553 176.722 164.049 176.114V173.366C163.545 172.766 162.933 172.466 162.213 172.466C161.573 172.466 161.077 172.678 160.725 173.102C160.373 173.518 160.197 174.066 160.197 174.746C160.197 175.426 160.373 175.978 160.725 176.402C161.077 176.818 161.573 177.026 162.213 177.026ZM172.377 174.566C172.377 174.806 172.373 174.974 172.365 175.07H167.625C167.689 175.694 167.909 176.182 168.285 176.534C168.669 176.886 169.193 177.062 169.857 177.062C170.577 177.062 171.261 176.898 171.909 176.57L172.113 177.338C171.433 177.69 170.657 177.866 169.785 177.866C168.721 177.866 167.905 177.59 167.337 177.038C166.777 176.478 166.497 175.714 166.497 174.746C166.497 173.794 166.777 173.038 167.337 172.478C167.897 171.91 168.649 171.626 169.593 171.626C170.113 171.626 170.557 171.706 170.925 171.866C171.301 172.026 171.589 172.25 171.789 172.538C171.997 172.826 172.145 173.138 172.233 173.474C172.329 173.802 172.377 174.166 172.377 174.566ZM167.637 174.278H171.297C171.289 173.71 171.157 173.258 170.901 172.922C170.653 172.586 170.205 172.418 169.557 172.418C169.037 172.418 168.605 172.582 168.261 172.91C167.917 173.23 167.709 173.686 167.637 174.278ZM177.248 172.706C176.72 172.706 176.24 172.818 175.808 173.042C175.384 173.258 175.056 173.538 174.824 173.882V177.746H173.744V171.746H174.74L174.812 173.114C175.036 172.666 175.356 172.306 175.772 172.034C176.188 171.762 176.644 171.626 177.14 171.626L177.248 172.706ZM182.587 169.586V171.746H184.711V172.586H182.587V176.078C182.587 176.71 182.959 177.026 183.703 177.026C184.023 177.026 184.347 176.962 184.675 176.834L184.831 177.626C184.399 177.786 183.927 177.866 183.415 177.866C182.759 177.866 182.275 177.71 181.963 177.398C181.659 177.078 181.507 176.646 181.507 176.102V172.586H180.523V171.746H181.507V169.79L182.587 169.586ZM191.127 174.566C191.127 174.806 191.123 174.974 191.115 175.07H186.375C186.439 175.694 186.659 176.182 187.035 176.534C187.419 176.886 187.943 177.062 188.607 177.062C189.327 177.062 190.011 176.898 190.659 176.57L190.863 177.338C190.183 177.69 189.407 177.866 188.535 177.866C187.471 177.866 186.655 177.59 186.087 177.038C185.527 176.478 185.247 175.714 185.247 174.746C185.247 173.794 185.527 173.038 186.087 172.478C186.647 171.91 187.399 171.626 188.343 171.626C188.863 171.626 189.307 171.706 189.675 171.866C190.051 172.026 190.339 172.25 190.539 172.538C190.747 172.826 190.895 173.138 190.983 173.474C191.079 173.802 191.127 174.166 191.127 174.566ZM186.387 174.278H190.047C190.039 173.71 189.907 173.258 189.651 172.922C189.403 172.586 188.955 172.418 188.307 172.418C187.787 172.418 187.355 172.582 187.011 172.91C186.667 173.23 186.459 173.686 186.387 174.278ZM196.396 177.746L194.632 175.406L192.868 177.746H191.668L194.032 174.614L191.836 171.746H193.048L194.68 173.894L196.276 171.746H197.44L195.292 174.602L197.656 177.746H196.396ZM200.098 169.586V171.746H202.222V172.586H200.098V176.078C200.098 176.71 200.47 177.026 201.214 177.026C201.534 177.026 201.858 176.962 202.186 176.834L202.342 177.626C201.91 177.786 201.438 177.866 200.926 177.866C200.27 177.866 199.786 177.71 199.474 177.398C199.17 177.078 199.018 176.646 199.018 176.102V172.586H198.034V171.746H199.018V169.79L200.098 169.586ZM211.52 177.038C211.704 177.038 211.856 177.01 211.976 176.954V177.746C211.752 177.826 211.492 177.866 211.196 177.866C210.444 177.866 210.02 177.526 209.924 176.846C209.356 177.526 208.6 177.866 207.656 177.866C207.024 177.866 206.52 177.706 206.144 177.386C205.768 177.058 205.58 176.638 205.58 176.126C205.58 175.462 205.84 174.966 206.36 174.638C206.88 174.31 207.56 174.146 208.4 174.146C208.864 174.146 209.364 174.182 209.9 174.254V173.726C209.9 173.358 209.764 173.058 209.492 172.826C209.22 172.586 208.804 172.466 208.244 172.466C207.492 172.466 206.764 172.634 206.06 172.97L205.856 172.13C206.544 171.794 207.38 171.626 208.364 171.626C209.22 171.626 209.868 171.822 210.308 172.214C210.756 172.598 210.98 173.122 210.98 173.786V176.39C210.98 176.606 211.016 176.77 211.088 176.882C211.168 176.986 211.312 177.038 211.52 177.038ZM207.992 177.026C208.712 177.026 209.348 176.714 209.9 176.09V175.058C209.476 174.986 209 174.95 208.472 174.95C207.28 174.95 206.684 175.298 206.684 175.994C206.684 176.314 206.8 176.566 207.032 176.75C207.272 176.934 207.592 177.026 207.992 177.026ZM216.272 172.706C215.744 172.706 215.264 172.818 214.832 173.042C214.408 173.258 214.08 173.538 213.848 173.882V177.746H212.768V171.746H213.764L213.836 173.114C214.06 172.666 214.38 172.306 214.796 172.034C215.212 171.762 215.668 171.626 216.164 171.626L216.272 172.706ZM222.751 174.566C222.751 174.806 222.747 174.974 222.739 175.07H217.999C218.063 175.694 218.283 176.182 218.659 176.534C219.043 176.886 219.567 177.062 220.231 177.062C220.951 177.062 221.635 176.898 222.283 176.57L222.487 177.338C221.807 177.69 221.031 177.866 220.159 177.866C219.095 177.866 218.279 177.59 217.711 177.038C217.151 176.478 216.871 175.714 216.871 174.746C216.871 173.794 217.151 173.038 217.711 172.478C218.271 171.91 219.023 171.626 219.967 171.626C220.487 171.626 220.931 171.706 221.299 171.866C221.675 172.026 221.963 172.25 222.163 172.538C222.371 172.826 222.519 173.138 222.607 173.474C222.703 173.802 222.751 174.166 222.751 174.566ZM218.011 174.278H221.671C221.663 173.71 221.531 173.258 221.275 172.922C221.027 172.586 220.579 172.418 219.931 172.418C219.411 172.418 218.979 172.582 218.635 172.91C218.291 173.23 218.083 173.686 218.011 174.278ZM229.758 177.038C229.942 177.038 230.094 177.01 230.214 176.954V177.746C229.99 177.826 229.73 177.866 229.434 177.866C228.682 177.866 228.258 177.526 228.162 176.846C227.594 177.526 226.838 177.866 225.894 177.866C225.262 177.866 224.758 177.706 224.382 177.386C224.006 177.058 223.818 176.638 223.818 176.126C223.818 175.462 224.078 174.966 224.598 174.638C225.118 174.31 225.798 174.146 226.638 174.146C227.102 174.146 227.602 174.182 228.138 174.254V173.726C228.138 173.358 228.002 173.058 227.73 172.826C227.458 172.586 227.042 172.466 226.482 172.466C225.73 172.466 225.002 172.634 224.298 172.97L224.094 172.13C224.782 171.794 225.618 171.626 226.602 171.626C227.458 171.626 228.106 171.822 228.546 172.214C228.994 172.598 229.218 173.122 229.218 173.786V176.39C229.218 176.606 229.254 176.77 229.326 176.882C229.406 176.986 229.55 177.038 229.758 177.038ZM226.23 177.026C226.95 177.026 227.586 176.714 228.138 176.09V175.058C227.714 174.986 227.238 174.95 226.71 174.95C225.518 174.95 224.922 175.298 224.922 175.994C224.922 176.314 225.038 176.566 225.27 176.75C225.51 176.934 225.83 177.026 226.23 177.026Z" fill="#6C7278"/>
</svg>
